<?xml version="1.0" encoding="UTF-8"?>
<!DOCTYPE svg PUBLIC "-//W3C//DTD SVG 1.1//EN" "http://www.w3.org/Graphics/SVG/1.1/DTD/svg11.dtd">
<svg version="1.1" xmlns="http://www.w3.org/2000/svg" xmlns:xlink="http://www.w3.org/1999/xlink" x="0" y="0" width="599" height="253" viewBox="0, 0, 599, 253">
  <g id="Layer_1">
    <path d="M349.439,148.53 C348.71,148.004 348.05,147.417 347.293,146.987 C346.55,146.548 345.819,146.113 345.102,145.688 C344.745,145.478 344.393,145.271 344.043,145.065 C343.674,144.894 343.308,144.723 342.945,144.555 C341.494,143.898 340.142,143.239 338.75,142.831 C338.071,142.607 337.41,142.389 336.769,142.177 C336.109,142.007 335.465,141.862 334.844,141.727 C334.219,141.597 333.631,141.442 333.044,141.353 C332.452,141.272 331.882,141.21 331.337,141.155 C330.261,141.007 329.239,141.009 328.335,141.012 C327.881,141.015 327.468,140.996 327.057,141.023 C326.645,141.078 326.257,141.129 325.896,141.177 C325.189,141.278 324.614,141.345 324.179,141.519 C323.29,141.815 322.815,141.975 322.815,141.975 C322.815,141.975 323.314,142.036 324.248,142.153 C324.722,142.166 325.275,142.344 325.893,142.518 C326.509,142.684 327.188,142.874 327.98,143.194 C328.764,143.479 329.612,143.786 330.504,144.265 C330.949,144.488 331.413,144.715 331.892,144.931 C332.367,145.167 332.841,145.471 333.335,145.751 C333.823,146.03 334.328,146.321 334.849,146.617 C335.344,146.956 335.854,147.305 336.379,147.664 C337.438,148.329 338.465,149.17 339.525,150.022 C339.79,150.23 340.059,150.443 340.33,150.657 C340.583,150.894 340.84,151.134 341.097,151.375 C341.608,151.852 342.129,152.338 342.66,152.833 C343.661,153.873 344.66,154.97 345.635,156.112 C347.452,158.516 349.279,161.069 350.55,164.012 C350.87,164.745 351.259,165.445 351.538,166.203 C351.797,166.97 352.057,167.74 352.32,168.516 L352.724,169.673 C352.859,170.058 352.901,170.481 352.995,170.884 C353.176,171.692 353.358,172.505 353.542,173.32 C353.779,174.118 353.821,174.974 353.904,175.821 C353.982,176.668 354.073,177.514 354.185,178.36 C354.348,179.194 354.225,180.086 354.257,180.948 L354.256,183.555 L354.268,184.207 L354.27,184.275 L354.238,184.619 L353.827,188.99 C353.773,190.04 353.535,190.708 353.399,191.518 C353.252,192.308 353.105,193.095 352.959,193.88 C352.846,194.667 352.486,195.464 352.27,196.255 C352.034,197.054 351.801,197.849 351.568,198.639 C351.244,199.387 350.921,200.127 350.601,200.863 C350.268,201.596 350.023,202.38 349.586,203.035 C348.808,204.404 348.087,205.805 347.138,207.003 C346.682,207.613 346.282,208.277 345.792,208.845 C345.284,209.393 344.778,209.939 344.296,210.502 C344.047,210.777 343.815,211.069 343.559,211.329 L342.748,212.052 C342.211,212.536 341.674,213.008 341.158,213.502 C340.022,214.32 338.95,215.226 337.811,215.907 C336.672,216.592 335.578,217.312 334.448,217.795 C333.888,218.068 333.343,218.337 332.813,218.596 C332.26,218.802 331.723,219.002 331.203,219.195 C330.159,219.656 329.147,219.857 328.199,220.144 C327.245,220.47 326.364,220.526 325.544,220.682 C324.715,220.857 324,220.808 323.341,220.87 C323.011,220.887 322.705,220.903 322.424,220.917 C322.15,220.888 321.902,220.862 321.681,220.839 C320.751,220.745 320.254,220.696 320.254,220.696 C320.254,220.696 320.656,220.964 321.489,221.452 C321.701,221.572 321.938,221.707 322.198,221.854 C322.474,221.959 322.774,222.072 323.099,222.197 C323.754,222.434 324.531,222.779 325.422,222.902 C326.309,223.057 327.325,223.341 328.42,223.375 C329.523,223.47 330.74,223.55 332.016,223.437 C332.662,223.395 333.33,223.352 334.019,223.306 C334.694,223.189 335.391,223.07 336.105,222.947 C337.566,222.748 339.009,222.238 340.563,221.772 C341.356,221.568 342.09,221.197 342.864,220.863 C343.635,220.516 344.433,220.177 345.227,219.792 C345.99,219.357 346.752,218.885 347.535,218.41 C347.927,218.171 348.321,217.929 348.717,217.685 C349.101,217.423 349.461,217.122 349.837,216.837 C350.589,216.262 351.334,215.654 352.093,215.037 C352.834,214.402 353.483,213.659 354.197,212.953 C355.684,211.579 356.81,209.872 358.056,208.192 C358.714,207.366 359.192,206.44 359.696,205.512 C360.196,204.579 360.699,203.639 361.206,202.694 C361.993,200.719 362.835,198.756 363.449,196.626 C363.714,195.531 363.977,194.431 364.244,193.329 C364.492,192.245 364.801,191.036 364.85,190.137 L365.335,185.775 L365.375,185.411 L365.395,185.228 L365.426,184.831 L365.426,184.728 L365.427,183.917 L365.379,180.665 C365.324,179.581 365.423,178.507 365.222,177.419 C365.084,176.335 364.928,175.254 364.757,174.18 C364.59,173.107 364.459,172.035 364.116,170.99 C363.494,168.9 363.061,166.784 362.087,164.855 C361.654,163.879 361.225,162.907 360.798,161.945 C360.351,160.993 359.729,160.131 359.207,159.24 C358.64,158.373 358.17,157.458 357.529,156.667 C356.906,155.866 356.27,155.091 355.639,154.329 C355.321,153.951 355.018,153.565 354.693,153.202 L353.654,152.184 C352.965,151.512 352.285,150.855 351.601,150.224 C350.908,149.604 350.146,149.086 349.439,148.53 M415.861,64.388 C418.786,63.952 419.879,63.165 419.238,61.623 C402.004,54.403 358.451,53.47 358.451,53.47 L349.601,57.198 C357.081,56.266 406.69,62.293 415.861,64.388 M299.772,51.492 C283.016,37.867 269.656,46.615 268.084,48.348 C266.821,49.738 271.344,54.635 271.344,54.635 C271.344,54.635 290.675,49.978 299.772,51.492 M328.872,52.073 L330.044,56.176 L242.756,61.972 C243.162,60.924 247.821,55.102 249.918,55.102 L259.699,55.102 C259.699,55.102 264.009,40.633 279.613,39.935 C295.217,39.236 301.854,47.416 301.854,47.416 C302.32,41.827 304.185,40.577 305.581,39.92 C306.979,39.264 324.68,40.196 325.611,42.06 C326.543,43.923 325.611,48.58 325.611,48.58 L316.992,48.814 L317.926,51.609 L328.872,52.073 z M264.555,120.145 C265.202,119.505 265.8,118.781 266.39,118.047 C267.014,117.298 267.407,116.654 267.988,115.847 C269.903,112.725 271.395,109.277 271.924,105.668 C272.23,103.876 272.271,102.049 272.136,100.265 C271.957,98.477 271.511,96.736 270.842,95.118 C270.161,93.49 269.155,92.06 267.942,90.848 C267.621,90.559 267.302,90.243 266.982,89.99 L266.021,89.326 C265.642,89.04 265.287,88.925 264.924,88.721 C264.566,88.531 264.206,88.356 263.822,88.244 C260.814,87.113 257.728,87.4 255.181,88.145 C252.611,88.918 250.457,90.116 248.73,91.393 C247.021,92.693 245.633,93.953 244.62,95.111 C243.594,96.256 242.854,97.217 242.404,97.903 C241.939,98.582 241.69,98.944 241.69,98.944 C241.69,98.944 241.944,98.586 242.42,97.914 C242.881,97.234 243.633,96.286 244.671,95.158 C245.696,94.02 247.095,92.771 248.855,91.572 C250.618,90.394 252.786,89.258 255.33,88.721 C257.838,88.174 260.753,88.145 263.367,89.357 C263.704,89.479 264.014,89.659 264.319,89.853 C264.608,90.044 264.983,90.211 265.205,90.42 L266.116,91.152 C266.39,91.406 266.605,91.674 266.856,91.931 C267.797,93.024 268.609,94.344 269.092,95.802 C270.086,98.723 270.124,102.029 269.49,105.233 C268.832,108.439 267.524,111.573 265.714,114.387 C265.266,115.001 264.745,115.863 264.244,116.461 C263.741,117.097 263.237,117.736 262.647,118.333 C261.523,119.562 260.262,120.639 258.951,121.615 C256.301,123.523 253.277,124.855 250.21,125.168 C247.148,125.458 244.126,124.579 241.954,122.62 C239.808,120.786 238.594,118.095 238.058,115.595 C237.49,113.058 237.62,110.614 237.961,108.522 C238.318,106.425 238.873,104.633 239.485,103.226 C240.079,101.813 240.628,100.735 241.056,100.034 C241.47,99.322 241.69,98.944 241.69,98.944 C241.69,98.944 241.465,99.321 241.04,100.024 C240.603,100.721 240.035,101.792 239.421,103.199 C238.788,104.602 238.217,106.388 237.743,108.481 C237.299,110.583 237.1,113.041 237.464,115.699 C237.852,118.335 238.843,121.236 241.164,123.541 C243.329,125.814 246.809,127.166 250.314,127.059 C252.066,126.998 253.835,126.679 255.538,126.1 C257.214,125.476 258.86,124.686 260.364,123.662 C261.879,122.657 263.304,121.487 264.555,120.145 M571.773,108.175 C571.41,105.738 570.828,103.098 569.795,100.421 C568.739,97.762 567.305,95.002 565.146,92.629 C564.103,91.412 562.88,90.339 561.536,89.342 C560.835,88.855 560.118,88.361 559.448,88.006 L558.935,87.715 L558.621,87.544 L558.301,87.396 C557.872,87.2 557.424,87.048 556.969,86.925 C555.132,86.447 553.219,86.611 551.512,87.116 C549.792,87.618 548.229,88.43 546.792,89.369 C543.948,91.302 541.592,93.729 539.545,96.276 C537.486,98.823 535.809,101.559 534.324,104.256 C531.388,109.677 529.417,115.072 528.059,119.757 C526.673,124.439 525.97,128.445 525.477,131.23 C525.229,132.625 525.104,133.736 525.003,134.485 C524.91,135.237 524.859,135.638 524.859,135.638 C524.859,135.638 525.277,134.078 526.007,131.348 C526.731,128.622 527.921,124.771 529.578,120.259 C531.256,115.759 533.464,110.597 536.466,105.465 C537.96,102.896 539.699,100.368 541.642,97.974 C543.59,95.594 545.817,93.37 548.34,91.695 C550.81,90.028 553.761,88.892 556.302,89.537 C556.612,89.619 556.921,89.718 557.211,89.848 L557.431,89.947 L557.637,90.059 L558.157,90.34 C558.892,90.702 559.468,91.095 560.058,91.476 C561.237,92.3 562.376,93.228 563.333,94.282 C565.305,96.352 566.765,98.784 567.875,101.216 C568.946,103.674 569.683,106.138 570.201,108.459 C571.18,113.118 571.431,117.149 571.438,119.959 C571.461,122.775 571.323,124.39 571.323,124.39 C571.323,124.39 571.704,122.811 571.979,119.983 C572.211,117.162 572.471,113.067 571.773,108.175 M562.112,151.64 C562.112,151.64 562.109,151.005 562.104,149.814 C562.076,148.623 562.052,146.874 561.896,144.654 C561.744,142.435 561.481,139.744 561.018,136.677 C560.547,133.61 559.822,130.174 558.64,126.519 C558.037,124.696 557.288,122.825 556.271,120.991 C555.242,119.18 553.965,117.309 551.942,116.032 C550.96,115.397 549.646,115.012 548.402,115.091 C547.114,115.143 545.883,115.668 544.868,116.394 C542.824,117.869 541.385,119.939 540.21,122.093 C537.866,126.443 536.462,131.325 535.53,136.321 C534.579,141.318 534.204,146.503 534.165,151.628 C534.211,156.805 534.579,161.952 535.535,166.958 C536.468,171.955 537.878,176.833 540.218,181.184 C541.394,183.337 542.829,185.406 544.873,186.88 C545.875,187.603 547.135,188.136 548.408,188.184 C549.678,188.259 550.941,187.878 551.938,187.243 C553.961,185.967 555.237,184.097 556.266,182.287 C557.284,180.454 558.034,178.584 558.635,176.762 C559.818,173.107 560.547,169.672 561.015,166.604 C561.479,163.537 561.744,160.846 561.896,158.627 C562.052,156.406 562.076,154.659 562.104,153.468 C562.109,152.275 562.112,151.64 562.112,151.64 M529.692,64.154 L537.021,65.289 C539.465,65.66 541.905,66.056 544.335,66.484 C549.204,67.302 554.063,68.18 558.854,69.288 C561.253,69.832 563.628,70.465 565.945,71.249 C567.096,71.656 568.232,72.11 569.304,72.68 C570.326,73.277 571.45,73.952 571.841,75.168 C571.673,73.886 570.625,72.913 569.643,72.158 C568.622,71.392 567.511,70.771 566.377,70.218 C564.11,69.096 561.734,68.263 559.356,67.47 C554.578,65.954 549.707,64.823 544.817,63.846 C542.37,63.38 539.916,62.948 537.458,62.54 C535.001,62.143 532.533,61.81 530.067,61.476 C527.602,61.131 525.126,60.884 522.652,60.621 C520.177,60.351 517.701,60.165 515.209,59.986 L514.703,59.949 L514.403,60.268 C512.721,62.058 511.065,63.875 509.434,65.718 C508.625,66.644 507.805,67.561 507.019,68.51 C506.229,69.448 505.423,70.411 504.714,71.404 C505.626,70.556 506.578,69.803 507.504,68.993 L510.297,66.587 C512.021,65.088 513.729,63.574 515.424,62.05 L529.692,64.154 z M516.359,89.454 C516.359,89.454 516.24,89.21 515.965,88.792 C515.82,88.6 515.676,88.298 515.413,88.082 C515.168,87.842 514.881,87.564 514.539,87.29 C514.188,87.055 513.793,86.802 513.355,86.557 C512.911,86.355 512.43,86.161 511.923,85.981 C511.413,85.852 510.878,85.693 510.332,85.617 C509.788,85.548 509.226,85.466 508.675,85.465 C506.45,85.408 504.297,85.893 502.796,86.551 C501.279,87.169 500.405,87.916 500.405,87.915 C500.405,87.914 501.53,88.072 503.084,88.122 C504.648,88.207 506.653,88.199 508.592,88.259 C509.083,88.243 509.555,88.315 510.032,88.312 C510.506,88.339 510.959,88.392 511.414,88.407 C511.851,88.469 512.282,88.512 512.698,88.556 C513.094,88.639 513.486,88.692 513.86,88.743 C514.201,88.848 514.539,88.922 514.847,88.99 C515.163,89.048 515.396,89.17 515.626,89.232 C516.069,89.378 516.359,89.454 516.359,89.454 M515.427,172.252 C515.427,172.252 513.407,172.517 509.885,173.052 C506.367,173.61 501.327,174.331 495.308,175.34 C489.283,176.325 482.265,177.535 474.759,178.892 C471.009,179.584 467.123,180.254 463.191,181.015 C459.259,181.764 455.262,182.523 451.266,183.283 C447.274,184.074 443.283,184.865 439.356,185.644 C435.433,186.447 431.572,187.237 427.836,188.002 C420.367,189.554 413.407,191.057 407.451,192.396 C401.49,193.713 396.546,194.929 393.074,195.724 C389.609,196.547 387.636,197.056 387.636,197.056 C387.636,197.056 389.655,196.789 393.177,196.256 C396.695,195.695 401.736,194.973 407.755,193.964 C413.78,192.978 420.797,191.768 428.305,190.414 C432.054,189.723 435.932,189.013 439.869,188.29 C443.804,187.543 447.801,186.784 451.798,186.024 C455.788,185.233 459.779,184.443 463.707,183.666 C467.639,182.902 471.489,182.069 475.229,181.307 C482.696,179.759 489.656,178.256 495.612,176.915 C501.572,175.599 506.516,174.382 509.987,173.585 C513.454,172.761 515.427,172.252 515.427,172.252 M387.478,155.97 C387.763,157.82 388.079,159.587 388.304,161.277 C388.494,162.972 388.675,164.582 388.845,166.095 C389.016,167.607 389.175,169.024 389.32,170.333 C389.404,171.649 389.48,172.856 389.55,173.949 C389.842,178.316 390.009,180.81 390.009,180.81 C390.009,180.81 389.94,178.309 389.822,173.933 C389.786,172.838 389.748,171.626 389.707,170.307 C389.601,168.99 389.486,167.566 389.363,166.046 C389.242,164.523 389.109,162.904 388.972,161.198 C388.798,159.492 388.501,157.716 388.253,155.85 C387.827,152.109 386.936,148.128 386.104,143.892 C385.555,141.805 384.989,139.66 384.411,137.469 C383.822,135.276 382.958,133.117 382.224,130.876 C381.433,128.654 380.393,126.482 379.47,124.234 C378.937,123.142 378.351,122.065 377.787,120.97 C377.215,119.882 376.682,118.764 375.98,117.732 C375.319,116.679 374.654,115.621 373.987,114.562 C373.278,113.529 372.483,112.55 371.732,111.538 C371.007,110.505 370.142,109.577 369.282,108.646 C368.432,107.706 367.59,106.755 366.608,105.94 C364.754,104.206 362.71,102.662 360.539,101.347 C359.429,100.725 358.368,100.034 357.155,99.573 L355.391,98.813 C354.802,98.61 354.209,98.449 353.621,98.266 C348.761,96.802 343.635,96.923 339.009,98.119 C334.357,99.297 330.256,101.623 326.862,104.328 C325.109,105.631 323.661,107.18 322.199,108.603 C320.896,110.175 319.515,111.592 318.471,113.173 C317.92,113.938 317.378,114.687 316.851,115.421 C316.359,116.179 315.915,116.941 315.472,117.677 C315.031,118.414 314.602,119.133 314.183,119.831 C313.817,120.556 313.462,121.26 313.117,121.943 C311.667,124.639 310.73,127.145 309.857,129.153 C309.042,131.185 308.552,132.838 308.147,133.938 C307.765,135.049 307.561,135.638 307.561,135.638 C307.561,135.638 307.789,135.056 308.219,133.965 C308.662,132.88 309.241,131.257 310.11,129.251 C311.045,127.275 312.049,124.82 313.573,122.186 C313.938,121.52 314.312,120.831 314.697,120.123 C315.133,119.444 315.58,118.746 316.039,118.03 C316.501,117.314 316.972,116.583 317.455,115.832 C317.99,115.118 318.537,114.387 319.097,113.644 C320.154,112.103 321.542,110.739 322.848,109.22 C324.31,107.853 325.754,106.362 327.485,105.129 C330.844,102.552 334.852,100.415 339.308,99.293 C343.74,98.172 348.659,98.097 353.243,99.512 C357.889,100.907 362.061,103.607 365.664,106.968 C366.614,107.753 367.439,108.669 368.269,109.578 C369.111,110.478 369.96,111.37 370.673,112.377 C371.412,113.36 372.193,114.31 372.893,115.315 C373.554,116.349 374.211,117.381 374.866,118.407 C375.558,119.412 376.089,120.508 376.659,121.575 C377.218,122.646 377.801,123.7 378.333,124.773 C379.254,126.981 380.295,129.113 381.089,131.304 C381.836,133.51 382.675,135.646 383.313,137.799 C383.928,139.959 384.527,142.073 385.113,144.133 C386.019,148.316 386.982,152.257 387.478,155.97 M380.845,174.755 C380.721,172.924 380.626,171.057 380.329,169.189 C380.134,167.304 379.724,165.432 379.326,163.543 C378.406,159.798 377.308,156.011 375.705,152.419 C374.108,148.836 372.282,145.337 370.071,142.16 C367.883,138.974 365.47,136.004 362.803,133.456 C360.15,130.901 357.374,128.637 354.484,126.876 C351.605,125.117 348.736,123.665 345.922,122.777 C345.575,122.654 345.232,122.533 344.893,122.412 C344.544,122.319 344.199,122.229 343.858,122.139 C343.177,121.964 342.511,121.792 341.863,121.625 C340.532,121.437 339.292,121.158 338.1,121.095 C335.724,120.891 333.65,120.97 331.96,121.168 C331.119,121.294 330.368,121.406 329.716,121.504 C329.084,121.674 328.547,121.817 328.11,121.933 C327.24,122.169 326.775,122.294 326.775,122.294 C326.775,122.294 327.25,122.22 328.142,122.082 C328.588,122.012 329.138,121.928 329.784,121.829 C330.432,121.794 331.174,121.753 332.008,121.707 C333.663,121.648 335.694,121.738 337.968,122.122 C339.109,122.273 340.289,122.644 341.543,122.925 C342.752,123.381 344.082,123.663 345.365,124.274 C348.003,125.283 350.66,126.841 353.346,128.615 C356.035,130.407 358.578,132.704 361.063,135.189 C363.565,137.675 365.75,140.614 367.833,143.663 C369.925,146.717 371.642,150.083 373.14,153.526 C374.699,156.952 375.783,160.572 376.699,164.158 C377.53,167.768 378.133,171.377 378.389,174.908 C378.554,176.668 378.516,178.413 378.604,180.116 C378.536,181.817 378.559,183.493 378.424,185.114 C378.175,188.358 377.754,191.415 377.222,194.22 C376.918,195.613 376.627,196.95 376.35,198.222 C376.006,199.48 375.678,200.673 375.372,201.795 C374.738,204.036 373.988,205.929 373.47,207.527 C372.212,210.646 371.493,212.429 371.493,212.429 C371.493,212.429 372.416,210.744 373.97,207.741 C374.619,206.186 375.533,204.338 376.358,202.13 C376.762,201.018 377.191,199.838 377.645,198.591 C378.036,197.326 378.387,195.973 378.788,194.571 C379.506,191.747 380.123,188.637 380.503,185.303 C380.713,183.64 380.765,181.913 380.905,180.155 C380.907,178.392 380.958,176.585 380.845,174.755 M299.328,181.007 C299.299,181.582 299.282,182.153 299.276,182.719 L314.646,182.876 C314.651,182.504 314.663,182.131 314.682,181.755 L299.328,181.007 z M300.579,172.506 C300.44,173.059 300.313,173.625 300.193,174.195 L315.245,177.319 C315.32,176.957 315.402,176.597 315.49,176.244 L300.579,172.506 z M303.616,164.273 C303.351,164.799 303.094,165.336 302.85,165.887 L316.892,172.14 C317.035,171.818 317.186,171.5 317.341,171.191 L303.616,164.273 z M309.01,156.584 C308.559,157.047 308.117,157.535 307.688,158.046 L319.455,167.936 C319.644,167.712 319.838,167.498 320.035,167.295 L309.01,156.584 z M322.648,165.509 L318.201,150.795 C317.451,151.02 316.702,151.3 315.975,151.622 L322.22,165.67 C322.361,165.606 322.505,165.552 322.648,165.509 M308.179,206.692 C308.746,207.211 309.34,207.697 309.947,208.138 L318.981,195.702 C318.835,195.595 318.693,195.478 318.557,195.352 L308.179,206.692 z M315.154,188.274 C315.082,187.931 315.019,187.584 314.961,187.229 L299.785,189.668 C299.879,190.258 299.986,190.841 300.106,191.414 L315.154,188.274 z M302.339,198.385 C302.604,198.976 302.884,199.552 303.178,200.107 L316.766,192.918 C316.625,192.653 316.49,192.377 316.363,192.092 L302.339,198.385 z M320.247,196.215 L319.155,211.548 C319.574,211.578 319.985,211.582 320.387,211.59 C320.835,211.59 321.279,211.572 321.723,211.537 L320.247,196.215 z M322.743,195.141 C322.562,195.287 322.376,195.422 322.188,195.545 L330.604,208.407 C331.196,208.02 331.781,207.595 332.345,207.146 L322.743,195.141 z M337.663,201.372 C338.021,200.863 338.363,200.336 338.695,199.795 L325.577,191.779 C325.409,192.054 325.236,192.32 325.057,192.578 L337.663,201.372 z M323.197,171.482 C322.454,171.574 321.679,171.967 321.037,172.535 C319.713,173.662 318.76,175.381 318.188,177.301 C317.638,179.23 317.432,181.419 317.913,183.646 C318.172,184.751 318.6,185.881 319.344,186.872 C320.063,187.87 321.138,188.677 322.271,189.06 C322.443,189.116 322.484,189.143 322.763,189.22 L323.092,189.288 L323.741,189.416 C324.151,189.499 324.791,189.534 325.274,189.561 C326.299,189.529 327.354,189.309 328.181,188.662 C328.288,188.578 328.363,188.481 328.453,188.389 L341.782,193.366 C341.991,192.808 342.186,192.241 342.368,191.664 L329.107,187.449 C329.264,187.095 329.358,186.743 329.398,186.438 C329.51,185.751 329.409,185.185 329.321,184.742 C329.239,184.297 329.093,183.97 329.014,183.75 C328.924,183.53 328.86,183.421 328.86,183.421 C328.86,183.421 328.82,183.933 328.626,184.738 C328.527,185.136 328.369,185.61 328.121,186.042 C327.871,186.479 327.508,186.828 327.102,186.971 C326.678,187.104 326.119,187.049 325.496,186.94 C325.165,186.814 324.943,186.811 324.521,186.637 L323.901,186.403 L323.585,186.287 L323.451,186.194 C322.381,185.639 321.666,184.449 321.32,182.879 C320.97,181.33 320.982,179.573 321.202,177.978 C321.432,176.381 321.889,174.917 322.508,173.885 C322.834,173.385 323.185,172.98 323.58,172.756 C323.973,172.541 324.404,172.44 324.792,172.454 C325.156,172.48 325.497,172.527 325.72,172.619 C325.945,172.684 326.065,172.72 326.065,172.72 C326.065,172.72 325.982,172.625 325.825,172.449 C325.679,172.277 325.42,172.027 324.985,171.79 C324.564,171.572 323.942,171.374 323.197,171.482 M330.543,151.619 C329.777,151.268 328.983,150.971 328.181,150.735 L323.844,165.481 C323.94,165.511 324.035,165.547 324.132,165.592 L330.543,151.619 z M338.924,158.91 C338.523,158.326 338.106,157.768 337.674,157.24 L325.785,166.985 C325.942,167.176 326.091,167.377 326.234,167.587 L338.924,158.91 z M342.899,167.524 C342.729,166.931 342.543,166.348 342.343,165.779 L327.835,170.856 C327.943,171.17 328.045,171.491 328.141,171.816 L342.899,167.524 z M344.337,176.235 C344.306,175.66 344.263,175.088 344.212,174.523 L328.906,175.955 C328.941,176.322 328.968,176.694 328.987,177.07 L344.337,176.235 z M344.133,183.243 L344.158,183.03 L334.657,182.149 L328.884,181.344 L328.855,181.569 C328.813,181.949 328.767,182.322 328.711,182.694 L343.92,184.931 C344.002,184.373 344.073,183.811 344.137,183.243 L344.133,183.243 z M333.603,135.678 C313.563,134.639 296.25,154.416 294.932,179.85 C294.926,179.97 294.926,180.089 294.92,180.207 C296.066,160.972 308.87,146.05 323.657,146.815 C338.536,147.587 349.782,163.945 348.776,183.355 C347.772,202.766 334.894,217.877 320.016,217.106 C306.624,216.412 296.18,203.091 294.957,186.282 C296.257,208.807 310.506,226.835 328.831,227.782 C348.869,228.82 366.184,209.045 367.5,183.61 C368.817,158.176 353.642,136.716 333.603,135.678 M289.045,125.904 C289.045,128.216 290.926,130.097 293.238,130.097 C295.548,130.097 297.43,128.216 297.43,125.904 C297.43,123.594 295.548,121.712 293.238,121.712 C290.926,121.712 289.045,123.594 289.045,125.904 M496.237,152.147 L478.46,153.695 C472.531,154.19 466.614,154.797 460.691,155.341 L443.688,156.954 L443.628,140.267 C443.6,134.45 443.607,128.634 443.525,122.817 C443.415,111.183 443.279,99.549 442.994,87.915 C442.711,99.549 442.574,111.183 442.463,122.817 C442.381,128.634 442.39,134.45 442.361,140.267 L442.3,157.718 L442.298,158.488 L443.063,158.41 L460.815,156.61 C466.731,155.995 472.654,155.439 478.564,154.772 L496.306,152.836 L514.029,150.749 L496.237,152.147 z M285.233,82.517 C288.292,82.219 291.964,81.777 296.201,81.386 C298.329,81.228 300.592,81.06 302.977,80.883 C305.361,80.697 307.862,80.475 310.488,80.359 C315.732,80.07 321.402,79.714 327.416,79.468 C330.42,79.336 333.508,79.199 336.661,79.061 C339.819,78.946 343.044,78.828 346.324,78.708 C352.877,78.392 359.668,78.356 366.553,78.066 C373.445,77.898 380.446,77.726 387.449,77.555 C394.45,77.4 401.453,77.18 408.348,77.103 C415.244,76.976 422.028,76.852 428.597,76.73 C441.736,76.528 454.001,76.339 464.511,76.176 C475.031,76.081 483.796,76.002 489.934,75.947 C493,75.984 495.416,75.949 497.064,75.953 C498.711,75.948 499.59,75.947 499.59,75.947 C499.59,75.947 498.717,75.843 497.082,75.65 C495.447,75.465 493.048,75.153 489.986,74.837 C483.864,74.251 475.104,73.521 464.576,72.967 C459.314,72.719 453.61,72.407 447.576,72.248 C441.541,72.076 435.175,71.835 428.591,71.807 C422.004,71.733 415.199,71.613 408.284,71.707 C401.367,71.722 394.345,71.868 387.318,71.97 C380.296,72.206 373.273,72.445 366.36,72.678 C362.903,72.822 359.477,73.003 356.091,73.192 C352.705,73.361 349.36,73.576 346.073,73.806 C342.785,74.035 339.554,74.26 336.388,74.482 C333.228,74.768 330.135,75.049 327.124,75.321 C321.101,75.806 315.422,76.54 310.186,77.177 C304.942,77.758 300.163,78.646 295.927,79.276 C291.687,79.99 288.015,80.84 285.002,81.436 C282.003,82.115 279.706,82.876 278.112,83.289 C276.528,83.736 275.682,83.973 275.682,83.973 C275.682,83.973 276.551,83.838 278.178,83.584 C279.808,83.347 282.192,82.92 285.233,82.517 M277.866,188.556 C277.866,188.556 277.646,188.698 277.216,188.973 C276.782,189.235 276.11,189.574 275.205,189.937 C273.397,190.678 270.606,191.371 267.016,192.008 C263.424,192.643 259.007,193.125 253.936,193.572 C248.862,193.987 243.112,194.286 236.859,194.506 L235.683,194.536 L235.091,194.55 L234.799,194.555 L234.652,194.558 C234.69,194.557 234.46,194.562 234.719,194.555 L234.644,194.552 C233.839,194.518 233.027,194.485 232.207,194.451 C230.568,194.383 228.897,194.313 227.198,194.242 C223.799,194.129 220.285,194.012 216.673,193.89 C209.447,193.665 201.829,193.386 193.947,193.238 C186.066,193.076 177.921,192.837 169.647,192.722 C161.372,192.612 152.965,192.5 144.559,192.387 C136.154,192.335 127.748,192.284 119.474,192.232 C111.202,192.127 103.053,192.297 95.175,192.244 C87.299,192.179 79.679,192.28 72.456,192.333 C65.24,192.389 58.419,192.442 52.123,192.491 C45.833,192.502 40.056,192.608 34.927,192.698 C33.645,192.718 32.404,192.735 31.206,192.755 C30.006,192.742 28.851,192.731 27.739,192.72 C25.515,192.711 23.473,192.699 21.629,192.692 C17.941,192.658 15.039,192.709 13.061,192.711 C11.083,192.734 10.027,192.749 10.027,192.749 C10.027,192.749 11.069,192.9 13.024,193.187 C14.981,193.452 17.848,193.888 21.503,194.345 C23.33,194.583 25.353,194.845 27.555,195.129 C29.754,195.444 32.141,195.685 34.702,195.884 C39.819,196.328 45.598,196.833 51.918,197.28 C55.079,197.516 58.371,197.762 61.779,198.016 C65.18,198.237 68.693,198.375 72.308,198.568 C79.535,198.923 87.158,199.342 95.046,199.606 C98.99,199.736 103,199.871 107.058,200.005 C111.116,200.138 115.225,200.26 119.366,200.319 C127.649,200.467 136.064,200.617 144.477,200.766 C152.892,200.796 161.307,200.827 169.589,200.855 C177.873,200.889 186.024,200.689 193.912,200.622 C201.8,200.567 209.424,200.345 216.656,200.15 C220.271,200.048 223.788,199.949 227.189,199.854 C228.89,199.787 230.563,199.72 232.205,199.656 C233.026,199.624 233.839,199.592 234.643,199.559 L234.936,199.546 L235.09,199.53 L235.398,199.5 L236.002,199.437 L237.198,199.307 C243.53,198.621 249.287,197.717 254.368,196.751 C259.454,195.811 263.845,194.727 267.406,193.63 C270.974,192.558 273.685,191.372 275.416,190.371 C276.284,189.874 276.899,189.408 277.29,189.077 C277.67,188.732 277.866,188.556 277.866,188.556 M17.895,161.353 C17.24,157.095 14.816,153.933 12.48,154.294 C10.144,154.652 8.781,158.395 9.437,162.655 C10.092,166.914 12.516,170.075 14.852,169.716 C17.189,169.356 18.552,165.612 17.895,161.353 M26.069,125.438 C26.069,125.438 26.382,125.195 27.002,124.716 C26.854,124.145 26.714,123.571 26.606,122.988 C26.359,121.896 26.208,120.788 26.034,119.679 C25.915,118.565 25.786,117.451 25.758,116.324 C25.717,115.762 25.725,115.198 25.746,114.636 C25.753,114.072 25.772,113.506 25.839,112.944 C26.033,110.696 26.516,108.441 27.426,106.333 C28.331,104.228 29.672,102.276 31.405,100.741 C32.272,99.959 33.177,99.294 34.218,98.691 C35.148,98.146 36.283,97.66 37.42,97.347 C38.55,97.044 39.715,96.872 40.883,96.864 C41.467,96.872 42.052,96.852 42.629,96.947 C43.211,97.009 43.79,97.081 44.354,97.237 L45.206,97.435 L46.034,97.722 C46.593,97.894 47.122,98.141 47.646,98.402 C48.699,98.911 49.661,99.593 50.565,100.343 C51.424,101.143 52.243,102.011 52.833,103.055 C53.022,103.342 53.179,103.649 53.319,103.963 C51.997,97.053 41.325,91.851 33.143,96.966 C24.758,102.207 23.011,112.512 26.069,125.438 M58.016,106.496 C56.375,107.512 54.747,108.467 53.206,109.465 C51.685,110.495 50.204,111.496 48.773,112.467 C48.061,112.955 47.362,113.435 46.675,113.909 C46.012,114.414 45.361,114.91 44.723,115.396 C42.166,117.331 39.825,119.102 37.905,120.866 C35.956,122.594 34.195,124.015 32.906,125.371 C30.254,128.001 28.775,129.523 28.775,129.523 C28.775,129.523 30.432,128.175 33.266,125.779 C34.64,124.531 36.502,123.245 38.554,121.681 C40.581,120.084 43.034,118.503 45.648,116.707 C46.303,116.262 46.972,115.804 47.653,115.342 C48.358,114.91 49.076,114.472 49.805,114.025 C51.258,113.126 52.76,112.195 54.305,111.239 C55.866,110.31 57.512,109.428 59.171,108.488 C60.835,107.557 62.515,106.573 64.295,105.697 C66.055,104.79 67.846,103.868 69.658,102.933 C71.501,102.063 73.367,101.18 75.247,100.292 C77.112,99.371 79.033,98.529 80.973,97.711 C82.912,96.892 84.833,96.01 86.801,95.236 C90.727,93.671 94.641,92.071 98.581,90.726 C102.483,89.273 106.393,88.043 110.16,86.802 C112.048,86.197 113.934,85.701 115.76,85.138 C117.59,84.595 119.375,84.034 121.142,83.604 C124.664,82.702 127.98,81.768 131.088,81.108 C132.638,80.75 134.122,80.408 135.533,80.081 C136.952,79.794 138.298,79.521 139.563,79.265 C142.095,78.76 144.306,78.295 146.151,78.044 C149.827,77.456 151.922,77.083 151.922,77.083 C151.922,77.083 149.799,77.213 146.088,77.506 C144.23,77.621 141.989,77.922 139.407,78.242 C138.115,78.406 136.742,78.581 135.293,78.765 C133.856,79.012 132.346,79.271 130.769,79.542 C127.604,80.037 124.219,80.793 120.637,81.587 C118.837,81.954 117.02,82.449 115.153,82.926 C113.288,83.409 111.378,83.889 109.456,84.449 C105.631,85.633 101.634,86.727 97.685,88.183 C93.695,89.514 89.725,91.099 85.743,92.651 C83.756,93.442 81.821,94.354 79.867,95.195 C77.911,96.041 75.976,96.905 74.094,97.851 C72.201,98.768 70.321,99.677 68.482,100.612 C66.671,101.6 64.882,102.575 63.122,103.534 C61.349,104.469 59.655,105.477 58.016,106.496 M112.775,114.022 C113.287,114.431 113.912,114.628 114.582,114.628 C115.963,114.628 117.541,113.797 118.736,112.303 C120.509,110.086 120.673,107.364 119.104,106.11 C117.536,104.858 114.918,105.612 113.144,107.829 C111.369,110.047 111.207,112.768 112.775,114.022 M52.419,105.228 C52.247,104.707 52.025,104.199 51.706,103.734 C51.19,102.836 50.45,102.072 49.678,101.366 C48.856,100.707 47.985,100.098 47.023,99.648 C46.547,99.421 46.074,99.18 45.566,99.021 L44.817,98.751 L44.044,98.562 C43.533,98.412 43.007,98.343 42.479,98.281 C41.955,98.183 41.424,98.202 40.894,98.186 C39.834,98.18 38.778,98.326 37.752,98.588 C36.743,98.856 35.804,99.222 34.801,99.79 C33.911,100.291 32.997,100.936 32.206,101.64 C30.602,103.059 29.273,104.794 28.353,106.753 C27.425,108.708 26.88,110.85 26.615,113.025 C26.532,113.568 26.493,114.117 26.466,114.667 C26.431,115.216 26.389,115.766 26.395,116.318 C26.359,117.423 26.423,118.529 26.476,119.636 C26.61,121.305 26.836,122.969 27.113,124.63 C29.887,122.483 38.272,116.012 52.419,105.228 M28.048,172.166 C27.521,172.177 27.24,172.182 27.24,172.182 C27.24,172.182 27.525,172.187 28.061,172.197 C29.657,176.037 31.518,179.147 32.951,180.729 C39.124,187.543 42.462,187.632 68.448,188.321 C80.964,188.654 104.053,188.79 126.325,188.79 C152.591,188.79 177.721,188.6 183.002,188.32 L193.336,187.771 L193.692,187.473 C193.887,187.313 198.426,183.43 197.86,175.298 L197.811,174.581 C197.302,166.985 196.354,152.849 176.122,145.095 C152.277,135.955 64.804,134.339 40.852,139.213 C40.692,139.244 40.536,139.281 40.381,139.32 C40.211,139.36 40.045,139.403 39.879,139.426 L39.878,139.426 C37.692,139.73 35.737,140.263 34.012,141.013 C33.996,140.885 33.986,140.809 33.986,140.809 C33.986,140.809 33.984,140.888 33.982,141.025 C30.026,142.752 27.294,145.638 25.836,149.66 C23.319,156.595 25.278,165.483 28.048,172.166 M244.304,135.987 C249.292,133.573 253.932,130.675 258.128,127.485 C258.931,126.876 259.71,126.251 260.478,125.615 C263.918,123.669 267.171,120.822 269.845,117.187 C271.97,114.301 273.492,111.216 274.456,108.132 C274.875,107.091 275.218,106.041 275.474,104.99 C276.412,101.377 276.097,97.756 274.876,94.885 C273.942,91.754 272.195,89.058 269.611,87.157 C261.608,81.265 248.739,85.16 240.866,95.857 C232.994,106.553 233.098,119.999 241.1,125.89 C245.175,128.889 250.515,129.346 255.813,127.664 C252.085,130.329 248.049,132.77 243.747,134.823 C238.83,137.141 233.562,138.992 228.093,139.507 C225.371,139.767 222.615,139.758 219.958,139.278 C217.318,138.804 214.724,137.851 212.782,136.14 C210.819,134.457 209.758,131.953 209.817,129.401 C209.84,126.858 210.725,124.335 211.818,122.038 C214.037,117.384 217.064,113.328 220.165,109.727 C223.295,106.137 226.576,103.018 229.747,100.314 C236.116,94.925 241.961,91.09 246.161,88.619 C248.261,87.379 249.949,86.47 251.101,85.849 C252.261,85.247 252.881,84.925 252.881,84.925 C252.881,84.925 252.25,85.221 251.064,85.776 C249.891,86.355 248.157,87.184 246.02,88.371 C241.754,90.742 235.718,94.341 229.225,99.689 C225.979,102.356 222.61,105.44 219.371,109.023 C216.141,112.604 213.02,116.71 210.707,121.509 C210.417,122.115 210.151,122.706 209.887,123.354 C209.646,123.963 209.41,124.583 209.215,125.265 C208.825,126.594 208.561,127.968 208.54,129.391 C208.443,132.232 209.677,135.216 211.906,137.129 C214.105,139.08 216.916,140.1 219.711,140.623 C222.527,141.141 225.407,141.181 228.232,140.883 C233.908,140.316 239.32,138.372 244.304,135.987 M222.144,155.308 C217.809,155.308 214.283,159.148 214.283,163.866 C214.283,168.587 217.809,172.428 222.144,172.428 C226.479,172.428 230.003,168.587 230.003,163.866 C230.003,159.148 226.479,155.308 222.144,155.308 M148.954,83.973 C147.905,83.865 117.772,95.182 119.477,94.907 C121.295,94.615 217.077,91.9 217.077,91.9 C217.077,91.9 261.096,70.59 298.128,69.541 C280.312,66.048 234.546,77.227 212.188,84.925 L148.954,83.973 z M172.128,73.501 L219.408,71.404 C219.408,71.404 250.471,67.307 270.267,65 C243.018,63.392 187.965,69.076 172.128,73.501 M231.519,65.068 C243.861,64.602 354.898,51.036 416.909,66.467 C419.396,67.086 425.916,66.175 426.924,62.438 C426.924,62.438 438.245,22.971 430.533,20.117 C381.188,1.854 297.899,12.68 286.953,14.169 C275.394,15.74 266.833,20.682 261.329,26.396 C255.507,32.442 240.602,52.491 240.602,52.491 C240.602,52.491 239.437,53.888 231.519,65.068 M435.25,56.091 C448.309,55.134 480.025,66.281 480.956,68.842 C483.947,67.784 486.558,66.68 488.797,65.629 C488.122,65.191 487.247,64.724 486.242,64.287 C482.56,62.675 477.226,61.164 471.857,59.915 C461.1,57.397 450.098,55.916 450.098,55.916 C450.098,55.916 461.159,56.697 472.131,58.545 C477.62,59.466 483.076,60.631 487.121,62.098 C488.844,62.747 490.302,63.431 491.416,64.342 C495.853,62.049 498.186,60.273 498.186,60.273 C488.003,56.79 443.809,53.47 435.25,56.091 M596.394,139.631 C595.228,147.783 578.925,149.88 578.925,149.88 C578.925,149.88 581.021,155.934 579.391,157.565 C577.762,159.196 567.806,160.476 567.806,160.476 C567.107,168.86 563.089,193.49 550.278,203.447 C550.278,203.447 528.853,205.775 521.166,204.844 C513.48,203.913 505.097,192.266 503.349,182.486 L386.075,206.215 C384.451,205.775 382.123,207.29 382.123,207.29 C373.271,232.793 349.896,246.155 345.529,248.34 C341.162,250.522 325.295,252.938 302.237,251.541 C279.18,250.143 262.643,232.793 257.403,216.722 C252.512,219.343 221.332,226.853 215.306,226.766 C209.279,226.679 206.135,224.147 201.856,219.605 C201.856,219.605 146.658,218.586 146.192,219.517 C145.726,220.449 135.478,230.696 125.464,233.259 C115.45,235.82 94.72,236.286 94.72,236.286 C94.72,236.286 94.721,235.863 85.404,236.054 C73.992,236.286 53.904,224.232 47.673,209.036 C45.176,204.215 34.69,199.953 34.69,199.953 C34.69,199.953 23.161,198.73 11.632,197.682 C0.104,196.635 1.21,187.726 3.422,185.105 C5.634,182.486 13.295,184.592 15.391,182.263 C7.266,170.607 2.723,148.715 2.258,143.823 C0.953,130.127 14.835,97.009 39.522,87.46 C61.794,78.846 156.208,70.925 165.756,70.691 C169.015,69.295 212.336,62.54 225.146,62.773 C235.86,47.634 247.505,32.263 253.328,25.509 C259.15,18.755 268.815,9.672 285.934,7.575 C303.052,5.479 391.621,-3.946 432.431,13.398 C441.745,17.358 443.378,21.316 441.745,27.604 C440.116,33.892 436.388,51.128 436.388,51.128 C458.107,49.381 504.397,55.67 506.668,58.115 C505.62,61.259 497.76,69.993 497.76,69.993 C497.76,69.993 510.336,59.687 511.036,57.241 C511.734,54.796 561.925,63.703 571.938,67.664 C581.954,71.625 584.981,115.178 578.925,133.81 C578.925,133.81 597.558,131.479 596.394,139.631 M536.957,151.654 C536.947,152.88 536.966,154.11 537.008,155.339 L543.888,155.598 C543.719,155.193 543.591,154.777 543.494,154.366 C543.248,153.24 543.249,152.134 543.389,151.081 L536.998,148.87 C536.975,149.796 536.951,150.722 536.957,151.654 M560.734,148.696 L552.471,147.376 C552.465,147.723 552.458,148.076 552.441,148.43 L560.688,150.361 C560.712,149.804 560.727,149.248 560.734,148.696 M560.129,156.953 L560.153,156.794 L555.042,154.215 L552.104,152.514 L552.076,152.705 C552.032,153.053 551.983,153.396 551.932,153.734 L559.904,158.533 C559.986,158.014 560.063,157.488 560.131,156.952 L560.129,156.953 z M558.923,132.942 C558.744,132.317 558.559,131.714 558.362,131.132 L551.383,138.295 C551.454,138.503 551.519,138.718 551.581,138.941 L558.923,132.942 z M554.913,124.525 C554.527,124.059 554.127,123.638 553.717,123.276 L550.44,136.525 L550.597,136.685 L554.913,124.525 z M560.301,140.063 L552.228,142.339 C552.263,142.645 552.298,142.958 552.325,143.274 L560.486,141.849 C560.434,141.243 560.37,140.648 560.301,140.063 M556.153,171.742 L549.672,161.819 C549.56,162.059 549.446,162.292 549.328,162.515 L555.518,173.033 C555.735,172.62 555.946,172.189 556.153,171.742 M552.29,177.614 L547.942,164.515 C547.835,164.624 547.725,164.721 547.615,164.807 L551.285,178.502 C551.622,178.24 551.962,177.941 552.29,177.614 M546.685,165.145 L546.524,165.094 L544.98,179.489 C545.426,179.69 545.881,179.835 546.334,179.921 L546.685,165.145 z M545.897,164.394 C545.825,164.264 545.754,164.127 545.69,163.98 L539.418,172.939 C539.689,173.531 539.973,174.096 540.264,174.62 L545.897,164.394 z M549.802,136.341 L548.378,121.577 C547.964,121.662 547.544,121.795 547.135,121.971 L549.566,136.418 L549.802,136.341 M548.295,137.576 L543.096,125.468 C542.826,125.826 542.562,126.208 542.301,126.617 L547.938,138.092 C548.056,137.909 548.176,137.738 548.295,137.576 M546.604,140.814 L539.723,131.82 C539.547,132.275 539.376,132.742 539.209,133.224 L546.3,141.631 C546.399,141.351 546.498,141.079 546.604,140.814 M562.085,149.814 C562.103,151.005 562.112,151.64 562.112,151.64 C562.112,151.64 562.103,152.275 562.085,153.468 C562.046,154.658 562.002,156.405 561.823,158.621 C561.65,160.836 561.369,163.526 560.792,166.566 C560.223,169.602 559.439,173.02 558.059,176.554 C557.374,178.317 556.543,180.11 555.477,181.821 C554.412,183.509 553.079,185.191 551.319,186.168 C549.566,187.184 547.413,186.957 545.811,185.603 C544.174,184.299 542.93,182.362 541.944,180.297 C539.981,176.123 538.84,171.369 538.055,166.525 C537.998,166.147 537.956,165.762 537.903,165.381 L544.894,161.354 C544.833,161.075 544.781,160.789 544.729,160.495 L537.674,163.645 C537.406,161.433 537.214,159.197 537.096,156.952 L544.332,156.667 L544.325,156.443 C544.413,156.59 544.501,156.735 544.605,156.874 C545.16,157.655 546.011,158.261 546.884,158.567 C547.018,158.611 547.049,158.634 547.263,158.694 L547.519,158.75 C547.686,158.788 547.855,158.82 548.023,158.847 C548.342,158.911 548.842,158.93 549.215,158.955 C549.794,158.943 550.387,158.845 550.916,158.6 L558.225,166.154 C558.37,165.665 558.509,165.167 558.643,164.658 L551.615,158.122 C552.141,157.631 552.355,157.012 552.419,156.537 C552.506,156.001 552.429,155.562 552.359,155.218 C552.201,154.529 552.002,154.191 552.002,154.191 C552.002,154.191 551.976,154.59 551.819,155.215 C551.69,155.82 551.287,156.738 550.635,156.951 C550.305,157.054 549.87,157.011 549.385,156.935 C549.128,156.843 548.956,156.83 548.628,156.693 C548.472,156.628 548.311,156.567 548.146,156.512 L547.9,156.425 L547.794,156.355 C546.961,155.919 546.413,154.989 546.142,153.771 C545.874,152.566 545.873,151.202 546.042,149.961 C546.225,148.718 546.579,147.581 547.064,146.78 C547.551,145.966 548.216,145.64 548.84,145.669 C549.427,145.689 549.842,145.9 549.828,145.874 C549.828,145.874 549.763,145.802 549.641,145.669 C549.524,145.533 549.328,145.335 548.989,145.152 C548.662,144.981 548.179,144.829 547.601,144.913 C547.021,144.984 546.421,145.289 545.92,145.732 C544.896,146.609 544.155,147.946 543.716,149.436 C543.662,149.62 543.628,149.815 543.583,150.004 L537.047,147.257 C537.138,145.105 537.301,142.969 537.532,140.85 L545.086,146.268 C545.15,145.934 545.218,145.604 545.29,145.281 L537.73,139.252 C537.835,138.418 537.938,137.583 538.061,136.757 C538.432,134.325 538.943,131.939 539.573,129.626 C540.188,127.307 540.959,125.063 541.95,122.986 C542.936,120.923 544.182,118.986 545.813,117.683 C547.412,116.329 549.58,116.106 551.314,117.118 C553.074,118.095 554.407,119.775 555.472,121.463 C556.539,123.173 557.369,124.966 558.054,126.729 C559.435,130.261 560.223,133.679 560.791,136.716 C561.369,139.756 561.65,142.444 561.823,144.659 C562.002,146.876 562.046,148.623 562.085,149.814 M44.369,145.484 C47.482,145.41 50.595,145.345 53.707,145.285 C53.713,144.715 53.718,144.186 53.717,143.753 C53.74,142.621 53.754,141.973 53.754,141.973 C53.754,141.973 53.838,142.615 53.986,143.738 C54.032,144.175 54.096,144.703 54.165,145.275 C57.308,145.216 60.451,145.158 63.595,145.105 C63.597,144.822 63.599,144.55 63.598,144.309 C63.624,143.194 63.637,142.556 63.637,142.556 C63.637,142.556 63.722,143.188 63.87,144.295 C63.895,144.538 63.927,144.813 63.961,145.1 C64.963,145.083 65.965,145.065 66.968,145.049 L73.468,144.975 C73.477,143.975 73.49,142.975 73.52,141.973 C73.658,142.971 73.78,143.97 73.895,144.97 L83.349,144.864 C83.355,143.707 83.371,142.551 83.406,141.391 C83.562,142.546 83.696,143.702 83.823,144.859 L93.23,144.753 C93.238,143.634 93.253,142.512 93.289,141.391 C93.439,142.509 93.569,143.629 93.692,144.748 L102.019,144.654 L103.115,144.651 C103.125,143.76 103.143,142.866 103.173,141.973 C103.292,142.865 103.403,143.758 103.504,144.65 L112.997,144.631 C113.008,143.745 113.027,142.86 113.057,141.973 C113.176,142.858 113.284,143.744 113.385,144.63 L122.9,144.611 C122.911,144.054 122.921,143.5 122.94,142.946 C123.017,143.499 123.083,144.054 123.151,144.61 L132.783,144.59 C132.794,144.042 132.804,143.494 132.824,142.946 C132.899,143.493 132.963,144.042 133.031,144.589 L137.072,144.581 L142.642,144.606 C142.656,143.728 142.677,142.851 142.708,141.973 C142.825,142.851 142.929,143.729 143.028,144.608 L152.523,144.65 C152.532,144.076 152.55,143.501 152.566,142.926 C118.856,138.502 64.693,138.181 43.884,141.506 C43.916,141.738 43.991,142.318 44.104,143.18 C44.168,143.807 44.267,144.592 44.369,145.484 M117.645,111.43 C118.887,109.878 119.156,107.942 118.231,107.202 C117.978,106.999 117.657,106.904 117.299,106.904 C116.349,106.904 115.137,107.575 114.235,108.702 C112.993,110.254 112.724,112.192 113.648,112.93 C114.572,113.67 116.402,112.983 117.645,111.43 M34.662,165.451 C34.59,164.324 34.522,163.184 34.454,162.042 C34.404,161.052 34.356,160.061 34.309,159.08 C31.286,159.027 29.58,159 29.58,159 C29.58,159 31.282,158.959 34.299,158.885 C34.224,157.308 34.156,155.75 34.11,154.257 C34.087,153.647 34.07,153.05 34.055,152.463 C31.933,152.428 30.749,152.408 30.749,152.408 C30.749,152.408 31.932,152.376 34.052,152.321 C34.01,150.564 33.994,148.919 33.958,147.454 C33.946,146.887 33.94,146.357 33.94,145.846 C33.267,145.836 32.593,145.829 31.92,145.817 C32.593,145.796 33.267,145.779 33.94,145.76 C33.938,145.196 33.94,144.68 33.945,144.199 C31.335,145.653 29.488,147.786 28.463,150.612 C26.843,155.076 27.358,160.569 28.721,165.585 C29.463,165.568 31.529,165.521 34.662,165.451 M35.141,172.026 C35.079,171.307 35.018,170.576 34.963,169.821 C34.858,168.487 34.765,167.104 34.676,165.7 C31.54,165.646 29.47,165.61 28.725,165.595 C29.357,167.921 30.171,170.139 31.043,172.105 C31.977,172.086 33.064,172.064 34.304,172.039 C34.569,172.036 34.863,172.031 35.141,172.026 M93.534,159.422 C90.667,159.424 87.82,159.425 85.018,159.427 C85.074,160.37 85.133,161.314 85.187,162.259 C85.227,163.116 85.263,163.972 85.301,164.83 C88.1,164.815 90.94,164.799 93.804,164.783 C93.757,163.966 93.706,163.148 93.66,162.331 C93.616,161.361 93.576,160.391 93.534,159.422 M43.82,145.497 C43.826,144.604 43.837,143.821 43.834,143.196 C43.851,142.329 43.863,141.745 43.867,141.51 C42.987,141.649 42.165,141.797 41.408,141.951 C41.282,141.977 41.158,142.007 41.038,142.035 C40.775,142.099 40.52,142.159 40.264,142.194 C38.004,142.51 36.04,143.099 34.372,143.952 C34.436,144.493 34.506,145.088 34.577,145.741 C37.658,145.652 40.739,145.57 43.82,145.497 M125.067,178.117 L134.237,178.152 L133.794,173.161 C133.781,173.003 133.771,172.845 133.759,172.686 C130.875,172.697 127.953,172.71 124.998,172.722 C124.999,172.85 125.006,172.979 125.008,173.108 L125.067,178.117 z M84.553,152.765 C84.704,154.564 84.831,156.365 84.943,158.167 C87.751,158.148 90.605,158.127 93.477,158.107 C93.404,156.323 93.349,154.538 93.313,152.752 C90.363,152.756 87.436,152.761 84.553,152.765 M94.428,152.75 C94.575,154.531 94.701,156.314 94.81,158.099 C97.637,158.08 100.477,158.059 103.33,158.039 C103.261,156.273 103.205,154.503 103.177,152.734 C100.25,152.74 97.332,152.744 94.428,152.75 M144.11,178.191 L144.096,178.063 L143.654,172.917 C143.646,172.82 143.642,172.722 143.633,172.624 C142.308,172.637 140.972,172.649 139.62,172.661 C138.049,172.668 136.458,172.675 134.857,172.68 C134.86,172.824 134.866,172.967 134.868,173.108 L134.924,178.15 L134.924,178.155 L144.11,178.191 z M75.48,166.06 C75.562,167.889 75.626,169.72 75.67,171.552 C76.854,171.541 78.049,171.53 79.254,171.517 C80.949,171.511 82.669,171.504 84.399,171.497 C84.253,169.693 84.124,167.887 84.015,166.082 C82.162,166.08 80.324,166.08 78.513,166.079 C77.493,166.072 76.484,166.065 75.48,166.06 M104.269,152.731 C104.42,154.495 104.546,156.262 104.656,158.029 C105.014,158.028 105.37,158.025 105.728,158.022 C108.223,158.021 110.716,158.02 113.2,158.019 C113.131,156.232 113.077,154.444 113.05,152.655 C110.133,152.68 107.206,152.705 104.269,152.731 M122.91,152.572 C120.021,152.595 117.092,152.621 114.139,152.646 C114.291,154.436 114.417,156.227 114.527,158.019 C117.393,158.017 120.232,158.016 123.048,158.015 C122.985,156.356 122.937,154.697 122.917,153.036 C122.914,152.881 122.912,152.726 122.91,152.572 M132.785,152.476 C132.102,152.486 131.421,152.496 130.731,152.506 C128.507,152.523 126.241,152.544 123.949,152.562 C123.961,152.702 123.973,152.842 123.985,152.981 C124.134,154.659 124.256,156.336 124.363,158.014 C127.257,158.013 130.12,158.012 132.919,158.012 C132.858,156.354 132.812,154.695 132.792,153.036 C132.789,152.848 132.787,152.662 132.785,152.476 M104.678,178.115 L104.672,178.064 L104.215,172.919 L104.204,172.776 C101.264,172.771 98.335,172.765 95.428,172.76 L95.501,177.956 L95.499,178.151 L104.678,178.115 z M77.028,152.776 C76.228,152.774 75.437,152.771 74.646,152.767 C74.806,154.595 74.938,156.422 75.056,158.251 C75.955,158.241 76.855,158.228 77.766,158.218 C79.685,158.205 81.642,158.19 83.609,158.177 C83.534,156.375 83.476,154.571 83.438,152.767 C81.274,152.77 79.133,152.774 77.028,152.776 M124.378,178.115 L123.934,173.162 C123.921,173.018 123.914,172.872 123.901,172.726 C121.003,172.738 118.08,172.751 115.146,172.763 L115.149,172.865 L115.212,178.028 L115.212,178.079 L124.378,178.115 z M114.507,178.076 L114.53,178.076 L114.528,178.064 L114.075,172.919 L114.064,172.767 C112.523,172.774 110.981,172.78 109.438,172.787 C108.053,172.785 106.669,172.781 105.286,172.778 L105.288,172.865 L105.357,178.028 L105.356,178.112 L114.507,178.076 z M142.858,159.11 C140.087,159.144 137.229,159.18 134.305,159.217 C134.381,160.489 134.456,161.763 134.526,163.037 C134.552,163.6 134.573,164.166 134.597,164.727 C135.284,164.728 135.974,164.729 136.654,164.729 C138.848,164.743 141.003,164.757 143.119,164.768 C143.08,164.053 143.037,163.336 142.999,162.62 C142.948,161.45 142.904,160.28 142.858,159.11 M134.649,165.953 C134.726,167.781 134.786,169.609 134.825,171.438 C136.437,171.442 138.039,171.446 139.618,171.448 C140.943,171.458 142.252,171.468 143.551,171.475 C143.408,169.608 143.285,167.741 143.18,165.872 C141.045,165.896 138.87,165.918 136.657,165.942 C135.993,165.945 135.318,165.95 134.649,165.953 M124.786,166.008 C124.863,167.81 124.921,169.615 124.963,171.421 C127.899,171.427 130.801,171.431 133.666,171.437 C133.524,169.613 133.401,167.788 133.296,165.961 C130.502,165.976 127.659,165.992 124.786,166.008 M154.599,144.659 L162.426,144.76 C162.427,144.658 162.431,144.556 162.435,144.455 C159.452,143.907 156.192,143.404 152.709,142.946 C152.779,143.514 152.852,144.083 152.914,144.652 L154.599,144.659 z M123.101,159.297 C120.293,159.316 117.463,159.337 114.605,159.357 C114.668,160.421 114.732,161.485 114.791,162.552 C114.824,163.272 114.851,163.992 114.883,164.713 C117.726,164.716 120.555,164.718 123.357,164.72 C123.327,164.182 123.293,163.644 123.264,163.108 C123.206,161.838 123.153,160.566 123.101,159.297 M83.664,159.428 C81.68,159.428 79.706,159.428 77.771,159.428 C76.881,159.424 76.003,159.419 75.127,159.414 C75.191,160.46 75.258,161.503 75.319,162.55 C75.356,163.333 75.39,164.117 75.426,164.9 C76.447,164.89 77.474,164.879 78.511,164.867 C80.297,164.858 82.113,164.847 83.941,164.838 C83.893,164.003 83.84,163.168 83.793,162.331 C83.747,161.363 83.707,160.395 83.664,159.428 M85.533,171.492 C88.405,171.479 91.315,171.468 94.257,171.456 C94.113,169.668 93.988,167.88 93.88,166.091 C91.01,166.089 88.163,166.087 85.356,166.084 C85.435,167.886 85.494,169.687 85.533,171.492 M113.257,159.366 C110.756,159.384 108.246,159.401 105.732,159.418 C105.401,159.418 105.07,159.418 104.738,159.419 C104.8,160.462 104.864,161.506 104.922,162.552 C104.956,163.274 104.984,163.998 105.018,164.72 C105.872,164.717 106.727,164.712 107.583,164.707 C109.563,164.708 111.542,164.71 113.517,164.712 C113.478,164.014 113.434,163.318 113.396,162.622 C113.347,161.536 113.304,160.451 113.257,159.366 M103.39,159.419 C100.543,159.419 97.709,159.421 94.888,159.422 C94.943,160.367 95.002,161.313 95.055,162.259 C95.094,163.098 95.128,163.936 95.165,164.777 C97.978,164.76 100.81,164.744 103.651,164.728 C103.611,164.026 103.567,163.324 103.527,162.622 C103.479,161.554 103.435,160.486 103.39,159.419 M95.393,171.45 C98.277,171.438 101.185,171.427 104.102,171.413 C103.962,169.642 103.838,167.871 103.731,166.099 C100.882,166.097 98.043,166.095 95.223,166.092 C95.296,167.878 95.354,169.663 95.393,171.45 M133.816,152.462 C133.831,152.635 133.846,152.808 133.861,152.982 C134.008,154.659 134.128,156.336 134.235,158.013 C137.169,158.029 140.035,158.044 142.816,158.057 C142.746,156.152 142.69,154.244 142.668,152.336 C139.819,152.376 136.86,152.418 133.816,152.462 M152.542,152.195 C149.767,152.235 146.824,152.276 143.741,152.321 C143.904,154.233 144.03,156.148 144.144,158.063 C147.105,158.08 149.965,158.094 152.69,158.107 C152.62,156.175 152.563,154.24 152.544,152.305 L152.542,152.195 M105.077,166.1 C105.152,167.869 105.208,169.639 105.248,171.409 C106.644,171.403 108.04,171.397 109.436,171.391 C110.946,171.394 112.455,171.396 113.962,171.4 C113.822,169.624 113.7,167.847 113.595,166.07 C111.595,166.08 109.59,166.091 107.585,166.102 C106.75,166.101 105.913,166.101 105.077,166.1 M114.941,166.061 C115.014,167.842 115.07,169.621 115.109,171.402 C118.022,171.407 120.924,171.412 123.804,171.419 C123.663,169.618 123.539,167.817 123.434,166.015 C120.625,166.03 117.791,166.046 114.941,166.061 M94.835,178.153 L94.817,177.99 L94.355,172.775 L94.354,172.758 C91.391,172.752 88.46,172.747 85.569,172.74 L85.644,177.956 L85.643,178.189 L94.835,178.153 z M132.968,159.228 C130.178,159.248 127.324,159.267 124.438,159.288 C124.514,160.537 124.588,161.787 124.658,163.036 C124.684,163.597 124.706,164.159 124.73,164.72 C127.597,164.723 130.437,164.725 133.225,164.726 C133.194,164.186 133.161,163.647 133.132,163.107 C133.073,161.814 133.02,160.521 132.968,159.228 M44.825,170.005 C44.719,168.651 44.624,167.247 44.534,165.821 C41.262,165.783 38.402,165.749 36.03,165.72 C36.094,167.094 36.152,168.446 36.192,169.753 C36.222,170.525 36.242,171.274 36.258,172.011 C38.74,171.973 41.669,171.929 44.976,171.88 C44.922,171.267 44.871,170.642 44.825,170.005 M44.32,162.335 C44.269,161.285 44.218,160.239 44.168,159.201 C41.049,159.166 38.331,159.136 36.125,159.111 C35.965,159.108 35.826,159.106 35.673,159.103 C35.731,160.053 35.789,161.008 35.848,161.966 C35.905,163.126 35.962,164.282 36.017,165.427 C38.383,165.387 41.236,165.34 44.501,165.286 C44.44,164.306 44.381,163.321 44.32,162.335 M54.257,146.062 C54.339,146.772 54.424,147.546 54.499,148.394 C54.591,149.465 54.707,150.641 54.822,151.882 C57.599,151.843 60.55,151.802 63.644,151.758 C63.627,150.76 63.615,149.805 63.595,148.928 C63.573,147.88 63.577,146.938 63.585,146.106 C60.475,146.095 57.366,146.081 54.257,146.062 M43.82,145.978 C40.743,145.947 37.666,145.906 34.589,145.856 C34.641,146.348 34.692,146.865 34.741,147.412 C34.867,148.879 35.033,150.528 35.184,152.29 C35.757,152.274 36.361,152.26 37.033,152.241 C38.951,152.201 41.271,152.154 43.914,152.099 C43.883,150.612 43.867,149.206 43.838,147.946 C43.821,147.24 43.819,146.593 43.82,145.978 M74.02,146.105 C74.217,147.937 74.388,149.769 74.548,151.602 C75.369,151.592 76.191,151.579 77.023,151.567 C79.12,151.55 81.252,151.532 83.407,151.512 C83.372,149.705 83.347,147.895 83.345,146.087 L74.02,146.105 z M44.425,145.984 C44.493,146.585 44.56,147.215 44.619,147.902 C44.729,149.17 44.868,150.581 45.002,152.077 C47.599,152.022 50.473,151.965 53.601,151.899 L53.777,151.897 C53.756,150.667 53.741,149.5 53.717,148.437 C53.698,147.572 53.698,146.782 53.701,146.059 C50.61,146.041 47.519,146.016 44.425,145.984 M73.524,151.617 C73.488,149.781 73.464,147.945 73.466,146.106 L66.975,146.12 C66.011,146.116 65.046,146.112 64.082,146.108 C64.18,146.927 64.286,147.852 64.378,148.885 C64.455,149.772 64.548,150.733 64.644,151.744 C67.499,151.702 70.47,151.66 73.524,151.617 M172.885,167.186 C172.885,160.444 168.497,154.958 163.103,154.958 C157.708,154.958 153.32,160.444 153.32,167.186 C153.32,173.929 157.708,179.413 163.103,179.413 C168.497,179.413 172.885,173.929 172.885,167.186 M164.417,182.125 L164.259,182.138 C164.303,182.492 164.339,182.845 164.389,183.198 C164.405,182.841 164.408,182.483 164.417,182.125 M56.061,180.468 C55.923,180.412 55.788,180.349 55.653,180.289 C55.703,180.706 55.749,181.097 55.785,181.435 C55.935,182.557 56.019,183.198 56.019,183.198 C56.019,183.198 56.032,182.552 56.057,181.42 C56.056,181.133 56.057,180.813 56.061,180.468 M59.753,178.392 C64.686,178.392 68.697,173.365 68.697,167.186 C68.697,161.008 64.686,155.979 59.753,155.979 C54.822,155.979 50.809,161.008 50.809,167.186 C50.809,173.365 54.822,178.392 59.753,178.392 M162.745,145.131 L165.524,145.058 C169.344,145.855 172.597,146.736 175.121,147.704 C177.842,148.746 180.172,149.907 182.185,151.147 C182.172,152.062 182.126,153.319 182.134,154.822 C182.13,157.669 182.224,161.365 182.407,165.142 C181.671,165.128 180.856,165.115 179.954,165.098 C178.65,165.083 177.16,165.064 175.536,165.046 C175.553,165.179 175.574,165.308 175.587,165.443 C177.191,165.416 178.665,165.392 179.955,165.37 C180.859,165.35 181.678,165.332 182.416,165.315 C182.434,165.679 182.451,166.043 182.471,166.408 C182.574,168.253 182.699,170.093 182.836,171.845 C180.61,171.818 177.996,171.785 175.082,171.748 C175.034,171.93 174.972,172.105 174.918,172.284 C177.91,172.239 180.588,172.199 182.861,172.165 C183.03,174.292 183.215,176.279 183.403,177.962 C183.425,178.17 183.448,178.358 183.47,178.555 L176.01,178.431 L174.346,178.415 C174.346,178.22 174.349,178.031 174.347,177.827 C174.348,176.669 174.333,175.371 174.302,173.988 C174.02,174.647 173.699,175.278 173.341,175.878 C173.409,176.574 173.478,177.248 173.547,177.87 C173.566,178.057 173.587,178.228 173.607,178.408 L171.454,178.387 C171.198,178.66 170.933,178.92 170.658,179.167 L173.691,179.139 C173.818,180.176 173.945,181.061 174.025,181.735 C174.15,182.667 174.241,183.198 174.241,183.198 C174.241,183.198 174.273,182.66 174.296,181.72 C174.303,181.05 174.33,180.164 174.343,179.132 L176.01,179.116 L183.519,178.99 C183.655,180.106 183.792,181.053 183.877,181.76 C184.002,182.677 184.092,183.198 184.092,183.198 C184.092,183.198 184.125,182.669 184.149,181.745 C184.156,181.036 184.189,180.093 184.2,178.979 L194.965,178.799 C194.477,182.292 192.881,184.318 192.205,185.032 L182.854,185.53 C173.608,186.02 95.252,186.237 68.522,185.528 C44.68,184.894 40.826,184.679 36.353,180.255 C36.358,179.826 36.36,179.349 36.362,178.845 C39.46,178.904 42.556,178.958 45.653,179.004 C45.76,179.939 45.864,180.761 45.932,181.409 C46.081,182.549 46.166,183.198 46.166,183.198 C46.166,183.198 46.18,182.542 46.204,181.394 C46.2,180.751 46.213,179.937 46.217,179.012 C48.69,179.048 51.164,179.084 53.638,179.115 C53.351,178.904 53.072,178.68 52.802,178.442 C50.607,178.47 48.413,178.504 46.218,178.535 C46.218,177.943 46.215,177.321 46.2,176.644 C46.17,175.376 46.155,173.957 46.124,172.46 C47.023,172.47 47.948,172.481 48.896,172.493 C48.821,172.274 48.758,172.049 48.691,171.824 C47.81,171.838 46.95,171.851 46.112,171.863 C46.097,171.233 46.079,170.594 46.053,169.936 C46.013,168.608 45.954,167.234 45.89,165.837 C46.602,165.845 47.325,165.855 48.071,165.863 C48.088,165.648 48.118,165.437 48.144,165.225 C47.363,165.237 46.605,165.25 45.862,165.263 C45.814,164.265 45.765,163.262 45.715,162.257 C45.653,161.239 45.592,160.224 45.529,159.217 C46.969,159.231 48.492,159.249 50.083,159.266 C50.22,159.028 50.369,158.801 50.518,158.573 C48.753,158.606 47.078,158.637 45.495,158.666 C45.406,157.276 45.314,155.906 45.209,154.586 C45.16,153.907 45.104,153.244 45.048,152.594 C47.634,152.621 50.494,152.652 53.604,152.683 L53.792,152.684 C53.809,153.454 53.828,154.239 53.857,155.052 L53.859,155.097 C54.239,154.833 54.629,154.589 55.034,154.376 C54.989,153.802 54.943,153.239 54.894,152.688 C57.655,152.699 60.588,152.713 63.661,152.723 C63.668,153.147 63.678,153.574 63.688,154.012 C64.102,154.188 64.504,154.39 64.895,154.619 C64.844,153.973 64.79,153.344 64.734,152.728 C67.569,152.74 70.519,152.752 73.551,152.763 C73.585,154.599 73.648,156.433 73.726,158.267 C72.069,158.288 70.439,158.307 68.835,158.329 C69.068,158.668 69.29,159.02 69.497,159.386 C70.904,159.392 72.33,159.401 73.778,159.408 C73.826,160.479 73.873,161.552 73.925,162.623 C73.969,163.387 74.019,164.151 74.064,164.916 C73.145,164.925 72.23,164.935 71.328,164.944 C71.377,165.305 71.419,165.667 71.443,166.036 C72.331,166.041 73.231,166.046 74.133,166.052 C74.247,167.889 74.379,169.725 74.53,171.562 C73.302,171.574 72.088,171.585 70.887,171.595 C70.786,171.96 70.679,172.318 70.553,172.668 C71.892,172.678 73.246,172.687 74.617,172.695 L74.635,172.921 L75.105,178.064 L75.124,178.231 L73.504,178.239 C71.293,178.257 69.081,178.278 66.869,178.297 C66.495,178.638 66.104,178.953 65.697,179.24 C65.597,179.309 65.502,179.387 65.401,179.454 C65.494,180.228 65.58,180.904 65.638,181.461 C65.785,182.565 65.87,183.198 65.87,183.198 C65.87,183.198 65.885,182.561 65.91,181.444 C65.907,180.845 65.92,180.095 65.927,179.242 C68.453,179.265 70.979,179.288 73.504,179.307 L75.247,179.315 C75.393,180.61 75.533,181.906 75.722,183.198 C75.772,181.904 75.774,180.61 75.781,179.318 L85.113,179.355 C85.254,180.636 85.39,181.919 85.573,183.198 C85.623,181.916 85.627,180.636 85.634,179.357 L94.973,179.394 C95.111,180.663 95.245,181.93 95.426,183.198 C95.476,181.929 95.481,180.663 95.489,179.395 L104.825,179.433 C104.963,180.689 105.098,181.945 105.277,183.198 C105.329,181.943 105.334,180.689 105.344,179.435 L114.507,179.471 L114.686,179.47 C114.82,180.714 114.952,181.957 115.13,183.198 C115.182,181.954 115.189,180.711 115.199,179.47 L124.524,179.432 C124.665,180.688 124.799,181.945 124.981,183.198 C125.035,181.941 125.043,180.686 125.055,179.429 L134.376,179.394 C134.516,180.663 134.65,181.93 134.833,183.198 C134.89,181.929 134.897,180.66 134.911,179.392 L144.236,179.355 C144.373,180.637 144.505,181.919 144.685,183.198 C144.741,181.915 144.75,180.634 144.763,179.353 L154.087,179.317 C154.224,180.611 154.356,181.906 154.537,183.198 C154.595,181.903 154.605,180.609 154.619,179.314 L155.509,179.31 L155.707,179.308 C155.323,178.975 154.957,178.615 154.609,178.232 C154.362,177.961 154.123,177.679 153.894,177.384 L153.952,178.062 L153.97,178.23 L144.778,178.194 L144.779,178.029 L144.727,172.867 L144.721,172.614 C146.985,172.594 149.204,172.573 151.37,172.552 C151.261,172.216 151.155,171.877 151.066,171.528 C148.988,171.513 146.861,171.5 144.695,171.483 C144.658,169.607 144.602,167.732 144.527,165.857 C146.592,165.837 148.615,165.814 150.585,165.793 C150.61,165.463 150.655,165.139 150.698,164.815 C148.678,164.803 146.604,164.791 144.484,164.778 C144.453,164.036 144.427,163.293 144.395,162.554 C144.332,161.399 144.267,160.246 144.201,159.093 C147.101,159.057 149.905,159.022 152.577,158.989 C152.743,158.687 152.921,158.396 153.105,158.109 C153.368,157.697 153.647,157.3 153.945,156.923 C153.848,155.365 153.744,153.809 153.612,152.255 L153.607,152.181 C153.788,152.179 153.976,152.176 154.154,152.174 C157.144,152.111 159.899,152.054 162.408,152.002 L162.409,152.205 C162.64,152.191 162.869,152.163 163.103,152.163 C163.211,152.163 163.314,152.18 163.422,152.183 L163.405,151.981 C166.231,151.924 168.697,151.872 170.721,151.831 C171.277,151.817 171.792,151.802 172.28,151.79 C172.265,152.529 172.249,153.375 172.255,154.33 C172.255,155.139 172.262,156.017 172.277,156.944 C172.614,157.375 172.929,157.829 173.223,158.305 C173.292,158.416 173.365,158.523 173.43,158.637 L173.48,158.715 L173.474,158.637 C174.125,158.623 174.754,158.612 175.337,158.602 C179.501,158.498 181.881,158.44 181.881,158.44 C181.881,158.44 179.501,158.4 175.336,158.329 C174.744,158.323 174.108,158.315 173.446,158.307 C173.319,156.853 173.186,155.493 173.052,154.286 C172.955,153.343 172.847,152.508 172.75,151.776 C175.469,151.704 177.004,151.663 177.004,151.663 C177.004,151.663 175.46,151.637 172.726,151.593 C172.669,151.16 172.616,150.758 172.575,150.422 C172.45,149.49 172.36,148.959 172.36,148.959 C172.36,148.959 172.328,149.497 172.306,150.436 C172.303,150.766 172.294,151.162 172.285,151.585 C171.794,151.577 171.278,151.569 170.719,151.558 C168.686,151.538 166.206,151.512 163.363,151.481 C163.185,149.363 162.99,147.246 162.745,145.131 M183.796,165.166 C185.71,165.2 186.758,165.219 186.758,165.219 C186.758,165.219 185.712,165.243 183.803,165.285 C183.824,165.633 183.845,165.981 183.865,166.332 C183.967,168.207 184.044,170.077 184.1,171.862 C184.253,171.864 184.422,171.865 184.57,171.868 C189.064,171.949 191.635,171.996 191.635,171.996 C191.635,171.996 189.065,172.049 184.571,172.14 C184.425,172.142 184.26,172.144 184.11,172.146 C184.174,174.26 184.206,176.238 184.204,177.918 C184.205,178.144 184.203,178.351 184.202,178.569 L194.972,178.748 C195.105,177.776 195.156,176.697 195.072,175.494 L195.023,174.767 C194.599,168.457 193.932,158.551 182.504,151.341 C182.618,152.228 182.785,153.391 182.931,154.777 C183.249,157.634 183.564,161.356 183.796,165.166 M164.158,144.783 C163.669,144.687 163.172,144.593 162.667,144.498 L162.7,144.763 L164.158,144.783 z M45.602,178.544 C45.537,177.962 45.473,177.353 45.415,176.687 C45.303,175.401 45.161,173.966 45.025,172.445 C41.702,172.403 38.758,172.367 36.265,172.334 C36.297,173.845 36.313,175.274 36.343,176.554 C36.361,177.329 36.364,178.037 36.362,178.702 C39.442,178.643 42.522,178.59 45.602,178.544 M35.558,176.597 C35.447,175.301 35.304,173.853 35.168,172.321 C34.88,172.317 34.578,172.313 34.305,172.309 C33.093,172.288 32.027,172.268 31.109,172.252 C32.401,175.137 33.805,177.457 34.916,178.728 C35.201,178.723 35.487,178.719 35.772,178.714 C35.699,178.056 35.624,177.361 35.558,176.597 M34.994,178.82 L35.022,178.853 C35.322,179.184 35.611,179.494 35.895,179.791 C35.86,179.487 35.823,179.17 35.786,178.835 C35.522,178.83 35.258,178.825 34.994,178.82 M35.335,154.189 C35.454,155.693 35.557,157.262 35.657,158.853 C35.816,158.847 35.959,158.845 36.124,158.84 C38.324,158.8 41.035,158.75 44.144,158.692 C44.081,157.316 44.024,155.962 43.983,154.653 C43.957,153.947 43.939,153.26 43.924,152.584 C41.277,152.555 38.954,152.531 37.035,152.512 C36.369,152.501 35.769,152.489 35.201,152.48 C35.247,153.04 35.293,153.608 35.335,154.189 M84.983,178.192 L84.961,177.991 L84.495,172.775 L84.492,172.738 C82.731,172.734 80.98,172.732 79.256,172.728 C78.062,172.72 76.877,172.713 75.704,172.703 L75.709,172.863 L75.79,178.027 L75.788,178.229 L84.983,178.192 z M154.604,145.345 L152.989,145.373 C153.201,147.376 153.378,149.379 153.541,151.385 C153.742,151.385 153.951,151.386 154.15,151.387 C157.139,151.417 159.894,151.446 162.401,151.471 C162.377,149.362 162.372,147.252 162.416,145.14 L154.604,145.345 z M123.297,145.81 C123.504,147.64 123.679,149.472 123.839,151.304 C126.167,151.3 128.468,151.297 130.725,151.293 C131.413,151.295 132.088,151.299 132.767,151.301 C132.743,149.436 132.733,147.571 132.759,145.704 L123.297,145.81 z M102.029,146.05 L93.831,146.065 C94.015,147.849 94.174,149.635 94.324,151.42 C97.254,151.393 100.197,151.369 103.149,151.344 C103.119,149.576 103.102,147.807 103.108,146.037 L102.029,146.05 z M103.653,146.031 C103.84,147.799 104.004,149.568 104.154,151.337 C107.122,151.332 110.079,151.328 113.026,151.323 C112.997,149.525 112.98,147.726 112.989,145.927 L103.653,146.031 z M152.517,145.382 L143.126,145.549 C143.33,147.479 143.502,149.412 143.661,151.344 C146.771,151.357 149.735,151.368 152.532,151.38 C152.506,149.381 152.494,147.382 152.517,145.382 M83.954,146.086 C84.14,147.89 84.302,149.698 84.454,151.504 C87.359,151.478 90.309,151.453 93.282,151.429 C93.249,149.641 93.226,147.854 93.225,146.066 L83.954,146.086 z M113.522,145.92 C113.713,147.72 113.878,149.519 114.03,151.321 C117.014,151.315 119.974,151.311 122.891,151.306 C122.866,149.476 122.854,147.646 122.876,145.815 L113.522,145.92 z M142.635,145.557 C142.617,147.485 142.629,149.414 142.655,151.341 C139.778,151.329 136.792,151.316 133.717,151.304 C133.555,149.435 133.378,147.565 133.165,145.699 L137.079,145.655 L142.635,145.557" fill="#0B0B09"/>
  </g>
</svg>
